<svg xmlns="http://www.w3.org/2000/svg" version="1.1" xmlns:xlink="http://www.w3.org/1999/xlink" width="1500" height="53" viewBox="0 0 1500 53"><svg xml:space="preserve" width="1500" height="53" data-version="2" data-id="lg_YI6MBVW6q2c8aQvE1O" viewBox="0 0 390 53" x="0" y="0"><rect width="100%" height="100%" fill="transparent"></rect><path d="M57.982 50.719v-3.75h9.75v-31.58h-9.75v-3.75h24.2v3.75h-9.75v31.58h9.75v3.75Z" paint-order="stroke"></path><rect width="24.2" height="39.08" x="-12.1" y="-19.54" fill="none" rx="0" ry="0" transform="translate(70.58 31.68)"></rect><path d="M101.552 51.399q-4.53 0-7.81-1.54-3.28-1.54-5.57-4.12l3.02-2.63q2.07 2.18 4.54 3.36 2.46 1.17 5.93 1.17 3.36 0 5.52-1.2 2.16-1.2 2.16-3.78 0-1.12-.42-1.88-.42-.75-1.15-1.2-.73-.45-1.63-.7-.89-.25-1.9-.42l-4.54-.67q-1.51-.23-3.27-.62-1.77-.39-3.22-1.26-1.46-.87-2.44-2.32-.98-1.46-.98-3.81 0-2.18.87-3.78.87-1.6 2.44-2.69 1.56-1.09 3.69-1.62t4.65-.53q3.92 0 6.8 1.23 2.89 1.23 4.96 3.41l-2.91 2.75q-.51-.62-1.26-1.26-.76-.65-1.85-1.18-1.09-.53-2.55-.87-1.45-.33-3.36-.33-3.41 0-5.23 1.17-1.82 1.18-1.82 3.42 0 1.12.42 1.88.42.75 1.14 1.2.73.45 1.66.7.92.25 1.87.42l4.54.67q1.57.23 3.3.62 1.74.39 3.19 1.26 1.46.87 2.44 2.32.98 1.46.98 3.81 0 4.31-3.33 6.66-3.33 2.36-8.88 2.36" paint-order="stroke"></path><rect width="25.59" height="30.24" x="-12.79" y="-15.12" fill="none" rx="0" ry="0" transform="translate(101.47 36.78)"></rect><path d="M132.692 51.399q-4.54 0-7.81-1.54-3.28-1.54-5.58-4.12l3.03-2.63q2.07 2.18 4.53 3.36 2.47 1.17 5.94 1.17 3.36 0 5.52-1.2 2.15-1.2 2.15-3.78 0-1.12-.42-1.88-.42-.75-1.15-1.2-.72-.45-1.62-.7-.9-.25-1.9-.42l-4.54-.67q-1.51-.23-3.28-.62-1.76-.39-3.22-1.26-1.45-.87-2.43-2.32-.98-1.46-.98-3.81 0-2.18.87-3.78.86-1.6 2.43-2.69 1.57-1.09 3.7-1.62t4.65-.53q3.92 0 6.8 1.23t4.96 3.41l-2.92 2.75q-.5-.62-1.26-1.26-.75-.65-1.84-1.18-1.1-.53-2.55-.87-1.46-.33-3.36-.33-3.42 0-5.24 1.17-1.82 1.18-1.82 3.42 0 1.12.42 1.88.42.75 1.15 1.2.73.45 1.65.7.93.25 1.88.42l4.53.67q1.57.23 3.31.62 1.73.39 3.19 1.26t2.44 2.32q.98 1.46.98 3.81 0 4.31-3.34 6.66-3.33 2.36-8.87 2.36" paint-order="stroke"></path><rect width="25.6" height="30.24" x="-12.8" y="-15.12" fill="none" rx="0" ry="0" transform="translate(132.6 36.78)"></rect><path d="M170.322 46.019h-.22q-.45 1.06-1.12 2.04-.68.98-1.66 1.71-.98.73-2.32 1.18-1.34.45-3.14.45-4.53 0-7.28-2.89-2.74-2.88-2.74-8.15v-18.53h4.48v17.75q0 3.98 1.74 5.91 1.73 1.93 5.09 1.93 1.35 0 2.63-.34 1.29-.33 2.3-1 1.01-.68 1.62-1.71.62-1.04.62-2.49v-20.05h4.48v28.89h-4.48Z" paint-order="stroke"></path><rect width="22.96" height="29.57" x="-11.48" y="-14.79" fill="none" rx="0" ry="0" transform="translate(163.82 37.11)"></rect><path d="M195.132 51.399q-3.14 0-5.63-1.07-2.49-1.06-4.26-3.05-1.76-1.99-2.71-4.76-.95-2.77-.95-6.19 0-3.47.98-6.27.98-2.8 2.71-4.79 1.74-1.99 4.17-3.05 2.44-1.06 5.41-1.06 2.91 0 5.29 1.06t4.06 2.94q1.68 1.88 2.58 4.45.89 2.58.89 5.66v2.13h-21.39v1.34q0 1.9.62 3.53.61 1.62 1.76 2.8 1.15 1.17 2.8 1.82 1.65.64 3.67.64 2.91 0 5.04-1.34 2.13-1.35 3.25-3.7l3.3 2.24q-1.29 2.91-4.28 4.79-3 1.88-7.31 1.88m-.28-26.55q-1.85 0-3.42.67-1.57.68-2.71 1.85-1.15 1.18-1.8 2.77-.64 1.6-.64 3.5v.4h16.58v-.62q0-1.9-.59-3.47-.59-1.57-1.63-2.72-1.03-1.15-2.52-1.76-1.48-.62-3.27-.62" paint-order="stroke"></path><rect width="26.09" height="30.24" x="-13.04" y="-15.12" fill="none" rx="0" ry="0" transform="translate(195.13 36.78)"></rect><path fill="#ff851b" d="M23.894 23.127a9.878 9.09 0 0 1 9.878 9.091l.125 18.328h9.913V32.218c0-10.122-8.917-18.328-19.916-18.328S3.978 22.096 3.978 32.218v18.328h10.048l-.01-18.328c0-5.02 4.423-9.09 9.878-9.09"></path><path fill="#311ff6" d="M23.783 27.78a9.09 9.878 90 0 1-9.878-9.091L13.78.361H3.867v18.328c0 10.122 8.917 18.328 19.916 18.328s19.916-8.206 19.916-18.328V.361H33.651l.01 18.328c0 5.02-4.423 9.09-9.878 9.09"></path><path d="M248.232 45.859h-.27q-.5 1.1-1.16 2.15-.66 1.04-1.67 1.84-1.02.8-2.45 1.29-1.43.5-3.41.5-6.27 0-9.32-5.06-3.06-5.06-3.06-14.52 0-9.9 3.36-15.02 3.35-5.11 10.34-5.11 2.69 0 4.67.71 1.98.72 3.39 1.93 1.4 1.21 2.33 2.72.94 1.51 1.54 3.05l-3.96 1.82q-.49-1.27-1.12-2.4-.64-1.12-1.54-1.98-.91-.85-2.18-1.34-1.26-.5-2.97-.5-4.62 0-6.79 3.47-2.17 3.46-2.17 9.24v5.94q0 2.91.44 5.3.44 2.4 1.46 4.16 1.01 1.76 2.64 2.72 1.62.96 3.98.96 3.74 0 5.83-2.25 2.09-2.26 2.09-5.83v-3.96h-8.08v-3.69h12.37v18.98h-4.29Z"></path><rect width="25.63" height="39.71" x="-12.81" y="-19.86" fill="none" rx="0" ry="0" transform="translate(240.2 32.28)"></rect><path d="M273.812 51.639q-3.08 0-5.53-1.05-2.45-1.04-4.18-3-1.73-1.95-2.67-4.67-.93-2.72-.93-6.08 0-3.41.96-6.16t2.67-4.7q1.7-1.95 4.1-3 2.39-1.04 5.3-1.04 2.86 0 5.2 1.04 2.34 1.05 3.99 2.89 1.65 1.84 2.53 4.37.88 2.53.88 5.56v2.09h-21.01v1.32q0 1.87.6 3.46.61 1.6 1.74 2.75 1.12 1.16 2.75 1.79 1.62.63 3.6.63 2.86 0 4.95-1.32 2.09-1.32 3.19-3.63l3.24 2.2q-1.26 2.86-4.2 4.7-2.95 1.85-7.18 1.85m-.28-26.07q-1.81 0-3.35.66t-2.67 1.81q-1.13 1.16-1.76 2.72-.63 1.57-.63 3.44v.39h16.28v-.61q0-1.87-.58-3.41t-1.59-2.67q-1.02-1.12-2.48-1.73-1.46-.6-3.22-.6"></path><rect width="25.63" height="29.7" x="-12.81" y="-14.85" fill="none" rx="0" ry="0" transform="translate(273.82 37.29)"></rect><path d="M295.202 50.979v-28.38h4.4v4.62h.22q.44-1.05 1.1-2.01.66-.96 1.63-1.68.96-.71 2.28-1.15 1.32-.44 3.08-.44 4.45 0 7.15 2.83 2.69 2.83 2.69 8v18.21h-4.4v-17.44q0-3.9-1.7-5.8-1.71-1.9-5.01-1.9-1.32 0-2.58.33-1.27.33-2.26.99-.99.66-1.59 1.71-.61 1.04-.61 2.42v19.69Z"></path><rect width="22.55" height="29.04" x="-11.28" y="-14.52" fill="none" rx="0" ry="0" transform="translate(306.98 36.96)"></rect><path d="M341.072 16.329q-1.92 0-2.69-.8t-.77-2.01v-.88q0-1.21.77-2.01.77-.79 2.69-.79 1.93 0 2.7.79.77.8.77 2.01v.88q0 1.21-.77 2.01-.77.8-2.7.8m-12.43 30.91h10.23v-20.9h-10.23v-3.74h14.63v24.64h9.57v3.74h-24.2Z"></path><rect width="24.2" height="41.14" x="-12.1" y="-20.57" fill="none" rx="0" ry="0" transform="translate(341.24 30.9)"></rect><path d="M372.812 51.639q-3.08 0-5.53-1.05-2.45-1.04-4.18-3-1.73-1.95-2.67-4.67-.93-2.72-.93-6.08 0-3.41.96-6.16t2.67-4.7q1.7-1.95 4.1-3 2.39-1.04 5.3-1.04 2.86 0 5.2 1.04 2.34 1.05 3.99 2.89 1.65 1.84 2.53 4.37.88 2.53.88 5.56v2.09h-21.01v1.32q0 1.87.6 3.46.61 1.6 1.74 2.75 1.12 1.16 2.75 1.79 1.62.63 3.6.63 2.86 0 4.95-1.32 2.09-1.32 3.19-3.63l3.24 2.2q-1.26 2.86-4.2 4.7-2.95 1.85-7.18 1.85m-.28-26.07q-1.81 0-3.35.66t-2.67 1.81q-1.13 1.16-1.76 2.72-.63 1.57-.63 3.44v.39h16.28v-.61q0-1.87-.58-3.41t-1.59-2.67q-1.02-1.12-2.48-1.73-1.46-.6-3.22-.6"></path><rect width="25.63" height="29.7" x="-12.81" y="-14.85" fill="none" rx="0" ry="0" transform="translate(372.82 37.29)"></rect></svg></svg>